<svg xmlns="http://www.w3.org/2000/svg" viewBox="0 0 24 24">
  <defs>
    <style>
      .cls-1 {
        fill: #d1bd7e;
      }
    </style>
  </defs>
  <g id="facebook-app-logo" transform="translate(0 -0.001)">
    <path id="Path_95" data-name="Path 95" class="cls-1" d="M22.675,0H1.325A1.325,1.325,0,0,0,0,1.326v21.35A1.325,1.325,0,0,0,1.325,24H12.819V14.707H9.691V11.084h3.127V8.413c0-3.1,1.893-4.788,4.658-4.788a25.94,25.94,0,0,1,2.794.142v3.24H18.353c-1.5,0-1.794.715-1.794,1.763v2.312h3.587l-.469,3.622H16.559V24h6.115A1.326,1.326,0,0,0,24,22.676V1.325A1.325,1.325,0,0,0,22.675,0Z" transform="translate(0)"/>
  </g>
</svg>
