<svg id="odnoklassniki-logo" xmlns="http://www.w3.org/2000/svg" viewBox="0 0 24 24"><defs><style>.cls-1{fill:#d1bd7e}</style></defs><g id="Group_65" data-name="Group 65"><path id="Path_99" data-name="Path 99" class="cls-1" d="M39.955 23.485a2.418 2.418 0 1 0-2.433-2.394 2.4 2.4 0 0 0 2.433 2.394z" transform="translate(-27.942 -13.888)"/><path id="Path_100" data-name="Path 100" class="cls-1" d="M22.723 0H1.277A1.277 1.277 0 0 0 0 1.277v21.446A1.277 1.277 0 0 0 1.277 24h21.446A1.276 1.276 0 0 0 24 22.723V1.277A1.276 1.276 0 0 0 22.723 0zM12.02 2.238a4.941 4.941 0 1 1-4.959 4.93 4.943 4.943 0 0 1 4.959-4.93zm5.534 11.823a5.94 5.94 0 0 1-2.139 1.383 10.087 10.087 0 0 1-2.429.544c.125.136.184.2.262.281 1.124 1.13 2.253 2.255 3.374 3.388a1.115 1.115 0 0 1 .251 1.314 1.331 1.331 0 0 1-1.25.779 1.219 1.219 0 0 1-.79-.4c-.849-.854-1.713-1.692-2.544-2.561-.242-.253-.358-.206-.572.014q-1.28 1.318-2.593 2.6a1.088 1.088 0 0 1-1.313.235 1.327 1.327 0 0 1-.766-1.223 1.224 1.224 0 0 1 .411-.821q1.668-1.666 3.332-3.338c.074-.074.142-.152.249-.267a7.585 7.585 0 0 1-4.047-1.444c-.145-.114-.295-.223-.427-.351a1.148 1.148 0 0 1-.158-1.633 1.156 1.156 0 0 1 1.531-.344 2.344 2.344 0 0 1 .335.2 6.636 6.636 0 0 0 7.355.068 1.983 1.983 0 0 1 .716-.37 1.124 1.124 0 0 1 1.288.514 1.087 1.087 0 0 1-.076 1.432z"/></g></svg>