<svg viewBox="0 -60 512.00038 512" xmlns="http://www.w3.org/2000/svg"><path d="M509.266 28.313L296.773 378.695c-3.824 6.114-10.058 10.465-17.101 11.938-1.762.37-3.55.55-5.344.55-5.281 0-10.515-1.59-14.906-4.601l-50.16-34.203-51 33.84a22.034 22.034 0 0 1-22.614 1.011c-7.144-3.851-11.585-11.265-11.585-19.359v-78.508c0-6.644 3.18-12.996 8.503-16.968l113.508-84.75-9.558 5.043-136.067 71.753a21.13 21.13 0 0 1-21.832-1.253l-67.14-45.825C3.332 211.86-1.012 202.293.199 192.45c1.223-9.906 7.805-18.183 17.192-21.594L487.043 1.137c7.395-2.723 15.719-.45 20.73 5.664a18.592 18.592 0 0 1 1.493 21.512zm0 0" fill="#51faff"/><path d="M507.773 6.8L246.074 187.646l-113.508 84.75c-5.324 3.972-8.504 10.324-8.504 16.968v78.508c0 8.094 4.442 15.508 11.586 19.36a22.034 22.034 0 0 0 22.614-1.012l51-33.84 50.16 34.203c4.39 3.012 9.625 4.602 14.906 4.602 1.793 0 3.582-.18 5.344-.551 7.043-1.473 13.277-5.824 17.101-11.938L509.266 28.313A18.592 18.592 0 0 0 507.773 6.8zm0 0" fill="#00e7f0"/></svg>